<svg width="98" height="31" viewBox="0 0 98 31" fill="none" xmlns="http://www.w3.org/2000/svg">
<path d="M21.4922 30H17.5664L7.27344 16.1133L4.22656 18.8477V30H0.90625V1.44531H4.22656V15.6836C4.96875 14.8372 5.73047 13.9974 6.51172 13.1641C7.29297 12.3177 8.06771 11.4648 8.83594 10.6055L17.1758 1.44531H21.0625L9.69531 13.8281L21.4922 30ZM33.1523 8.20312C34.9753 8.20312 36.5378 8.60677 37.8398 9.41406C39.1419 10.2214 40.138 11.3542 40.8281 12.8125C41.5182 14.2578 41.8633 15.9505 41.8633 17.8906V19.9023H27.0781C27.1172 22.4154 27.7422 24.3294 28.9531 25.6445C30.1641 26.9596 31.8698 27.6172 34.0703 27.6172C35.4245 27.6172 36.6224 27.4935 37.6641 27.2461C38.7057 26.9987 39.7865 26.6341 40.9062 26.1523V29.0039C39.8255 29.4857 38.7513 29.8372 37.6836 30.0586C36.6289 30.2799 35.3789 30.3906 33.9336 30.3906C31.8763 30.3906 30.0794 29.974 28.543 29.1406C27.0195 28.2943 25.8346 27.0573 24.9883 25.4297C24.1419 23.8021 23.7188 21.8099 23.7188 19.4531C23.7188 17.1484 24.1029 15.1562 24.8711 13.4766C25.6523 11.7839 26.7461 10.4818 28.1523 9.57031C29.5716 8.65885 31.2383 8.20312 33.1523 8.20312ZM33.1133 10.8594C31.3815 10.8594 30.0013 11.4258 28.9727 12.5586C27.944 13.6914 27.332 15.2734 27.1367 17.3047H38.4648C38.4518 16.0286 38.25 14.9089 37.8594 13.9453C37.4818 12.9688 36.9023 12.2135 36.1211 11.6797C35.3398 11.1328 34.3372 10.8594 33.1133 10.8594ZM57.5078 8.20312C60.0469 8.20312 61.9674 8.82812 63.2695 10.0781C64.5716 11.3151 65.2227 13.3073 65.2227 16.0547V30H62.0195V16.2695C62.0195 14.4857 61.6094 13.151 60.7891 12.2656C59.9818 11.3802 58.7383 10.9375 57.0586 10.9375C54.6888 10.9375 53.0221 11.6081 52.0586 12.9492C51.0951 14.2904 50.6133 16.237 50.6133 18.7891V30H47.3711V8.59375H49.9883L50.4766 11.6797H50.6523C51.1081 10.9245 51.6875 10.293 52.3906 9.78516C53.0938 9.26432 53.8815 8.8737 54.7539 8.61328C55.6263 8.33984 56.5443 8.20312 57.5078 8.20312ZM79.9102 8.24219C82.4622 8.24219 84.3568 8.8151 85.5938 9.96094C86.8307 11.1068 87.4492 12.9362 87.4492 15.4492V30H85.0859L84.4609 26.8359H84.3047C83.7057 27.6172 83.0807 28.2747 82.4297 28.8086C81.7786 29.3294 81.0234 29.7266 80.1641 30C79.3177 30.2604 78.276 30.3906 77.0391 30.3906C75.737 30.3906 74.5781 30.1628 73.5625 29.707C72.5599 29.2513 71.7656 28.5612 71.1797 27.6367C70.6068 26.7122 70.3203 25.5404 70.3203 24.1211C70.3203 21.9857 71.1667 20.3451 72.8594 19.1992C74.5521 18.0534 77.1302 17.4284 80.5938 17.3242L84.2852 17.168V15.8594C84.2852 14.0104 83.888 12.7148 83.0938 11.9727C82.2995 11.2305 81.1797 10.8594 79.7344 10.8594C78.6146 10.8594 77.5469 11.0221 76.5312 11.3477C75.5156 11.6732 74.5521 12.0573 73.6406 12.5L72.6445 10.0391C73.6081 9.54427 74.7148 9.12109 75.9648 8.76953C77.2148 8.41797 78.5299 8.24219 79.9102 8.24219ZM84.2461 19.4531L80.9844 19.5898C78.3151 19.694 76.4336 20.1302 75.3398 20.8984C74.2461 21.6667 73.6992 22.7539 73.6992 24.1602C73.6992 25.3841 74.0703 26.2891 74.8125 26.875C75.5547 27.4609 76.5378 27.7539 77.7617 27.7539C79.6628 27.7539 81.2188 27.2266 82.4297 26.1719C83.6406 25.1172 84.2461 23.5352 84.2461 21.4258V19.4531ZM97.3711 8.59375V30H94.1289V8.59375H97.3711ZM95.7891 0.585938C96.3229 0.585938 96.7786 0.761719 97.1562 1.11328C97.5469 1.45182 97.7422 1.98568 97.7422 2.71484C97.7422 3.43099 97.5469 3.96484 97.1562 4.31641C96.7786 4.66797 96.3229 4.84375 95.7891 4.84375C95.2292 4.84375 94.7604 4.66797 94.3828 4.31641C94.0182 3.96484 93.8359 3.43099 93.8359 2.71484C93.8359 1.98568 94.0182 1.45182 94.3828 1.11328C94.7604 0.761719 95.2292 0.585938 95.7891 0.585938Z" fill="url(#paint0_linear_268485_3406)"/>
<defs>
<linearGradient id="paint0_linear_268485_3406" x1="101" y1="-13" x2="-10.4502" y2="8.57438" gradientUnits="userSpaceOnUse">
<stop stop-color="#FF267A"/>
<stop offset="1" stop-color="#FFA634"/>
</linearGradient>
</defs>
</svg>
