<svg width="40" height="40" viewBox="0 0 40 40" fill="none" xmlns="http://www.w3.org/2000/svg">
<path d="M15 30C15 31.3261 15.5268 32.5979 16.4645 33.5355C17.4021 34.4732 18.6739 35 20 35C21.3261 35 22.5979 34.4732 23.5355 33.5355C24.4732 32.5979 25 31.3261 25 30" stroke="white" stroke-width="2" stroke-linecap="round" stroke-linejoin="round"/>
<path d="M8.75005 16.25C8.75005 13.2663 9.93531 10.4048 12.0451 8.29505C14.1549 6.18526 17.0164 5 20 5C22.9837 5 25.8452 6.18526 27.955 8.29505C30.0648 10.4048 31.25 13.2663 31.25 16.25C31.25 21.8469 32.5469 26.3438 33.5782 28.125C33.6877 28.3147 33.7455 28.5299 33.7456 28.7489C33.7458 28.9679 33.6885 29.1832 33.5793 29.3731C33.4701 29.563 33.3129 29.7209 33.1235 29.8309C32.9341 29.9409 32.7191 29.9992 32.5 30H7.50005C7.28127 29.9987 7.06666 29.94 6.87769 29.8297C6.68871 29.7195 6.53198 29.5616 6.42316 29.3718C6.31433 29.1819 6.25724 28.9669 6.25757 28.7481C6.2579 28.5293 6.31565 28.3145 6.42505 28.125C7.45474 26.3438 8.75005 21.8453 8.75005 16.25Z" stroke="white" stroke-width="2" stroke-linecap="round" stroke-linejoin="round"/>
</svg>
