<svg width="14" height="14" viewBox="0 0 14 14" fill="none" xmlns="http://www.w3.org/2000/svg">
<g clip-path="url(#clip0_268485_3469)">
<path d="M7.40141 1.58051L8.6718 4.60801C8.70255 4.68148 8.75277 4.74517 8.81705 4.7922C8.88133 4.83923 8.95723 4.86782 9.03656 4.87488L12.2883 5.15598C12.3746 5.16291 12.4568 5.19528 12.5247 5.249C12.5926 5.30271 12.643 5.37535 12.6696 5.45772C12.6962 5.5401 12.6977 5.6285 12.674 5.71176C12.6504 5.79501 12.6025 5.86937 12.5366 5.92543L10.0696 8.07738C10.0096 8.13005 9.96507 8.19798 9.94061 8.27396C9.91615 8.34993 9.91273 8.43111 9.9307 8.50887L10.6701 11.7103C10.6896 11.7939 10.6841 11.8814 10.6543 11.9619C10.6244 12.0424 10.5715 12.1124 10.5022 12.163C10.4329 12.2137 10.3502 12.2429 10.2644 12.2469C10.1786 12.2508 10.0936 12.2295 10.0198 12.1855L7.22531 10.4902C7.15741 10.4489 7.07947 10.4271 7 10.4271C6.92053 10.4271 6.84259 10.4489 6.77469 10.4902L3.98016 12.1855C3.90642 12.2295 3.82137 12.2508 3.73559 12.2469C3.64982 12.2429 3.56712 12.2137 3.49779 12.163C3.42846 12.1124 3.37558 12.0424 3.34573 11.9619C3.31588 11.8814 3.31038 11.7939 3.32992 11.7103L4.0693 8.50887C4.08727 8.43111 4.08384 8.34993 4.05939 8.27396C4.03493 8.19798 3.99035 8.13005 3.93039 8.07738L1.46344 5.92543C1.39748 5.86937 1.34964 5.79501 1.32596 5.71176C1.30228 5.6285 1.30383 5.5401 1.33041 5.45772C1.35699 5.37535 1.40741 5.30271 1.47528 5.249C1.54316 5.19528 1.62544 5.16291 1.71172 5.15598L4.96344 4.87488C5.04277 4.86782 5.11867 4.83923 5.18295 4.7922C5.24723 4.74517 5.29745 4.68148 5.3282 4.60801L6.59859 1.58051C6.63253 1.50223 6.6886 1.43559 6.75992 1.38877C6.83124 1.34196 6.91469 1.31702 7 1.31702C7.08531 1.31702 7.16876 1.34196 7.24008 1.38877C7.3114 1.43559 7.36747 1.50223 7.40141 1.58051Z" fill="white" stroke="white" stroke-width="2" stroke-linecap="round" stroke-linejoin="round"/>
</g>
<defs>
<clipPath id="clip0_268485_3469">
<rect width="14" height="14" fill="white"/>
</clipPath>
</defs>
</svg>
