<svg width="20" height="20" viewBox="0 0 20 20" fill="none" xmlns="http://www.w3.org/2000/svg">
<g clip-path="url(#clip0_268485_3432)">
<path d="M10.5734 2.25782L12.3883 6.58282C12.4322 6.68779 12.504 6.77877 12.5958 6.84595C12.6876 6.91314 12.796 6.95398 12.9094 6.96407L17.5547 7.36564C17.6779 7.37554 17.7955 7.42179 17.8925 7.49852C17.9894 7.57525 18.0614 7.67902 18.0994 7.7967C18.1374 7.91438 18.1396 8.04068 18.1058 8.15961C18.0719 8.27855 18.0036 8.38478 17.9094 8.46486L14.3852 11.5391C14.2995 11.6143 14.2358 11.7114 14.2009 11.8199C14.1659 11.9284 14.161 12.0444 14.1867 12.1555L15.243 16.7289C15.2709 16.8484 15.263 16.9734 15.2204 17.0884C15.1777 17.2034 15.1022 17.3034 15.0032 17.3757C14.9041 17.4481 14.786 17.4898 14.6634 17.4955C14.5409 17.5012 14.4194 17.4707 14.3141 17.4078L10.3219 14.986C10.2249 14.927 10.1135 14.8958 10 14.8958C9.88647 14.8958 9.77513 14.927 9.67813 14.986L5.68594 17.4078C5.5806 17.4707 5.4591 17.5012 5.33656 17.4955C5.21403 17.4898 5.09588 17.4481 4.99684 17.3757C4.89781 17.3034 4.82226 17.2034 4.77962 17.0884C4.73697 16.9734 4.72912 16.8484 4.75703 16.7289L5.81328 12.1555C5.83896 12.0444 5.83406 11.9284 5.79913 11.8199C5.76419 11.7114 5.70051 11.6143 5.61484 11.5391L2.09063 8.46486C1.99641 8.38478 1.92806 8.27855 1.89423 8.15961C1.8604 8.04068 1.86261 7.91438 1.90058 7.7967C1.93856 7.67902 2.01058 7.57525 2.10755 7.49852C2.20451 7.42179 2.32206 7.37554 2.44531 7.36564L7.09063 6.96407C7.20396 6.95398 7.31239 6.91314 7.40422 6.84595C7.49605 6.77877 7.56779 6.68779 7.61172 6.58282L9.42656 2.25782C9.47504 2.146 9.55514 2.0508 9.65703 1.98392C9.75891 1.91704 9.87813 1.88141 10 1.88141C10.1219 1.88141 10.2411 1.91704 10.343 1.98392C10.4449 2.0508 10.525 2.146 10.5734 2.25782Z" fill="#FFA634" stroke="#FFA634" stroke-width="2" stroke-linecap="round" stroke-linejoin="round"/>
</g>
<defs>
<clipPath id="clip0_268485_3432">
<rect width="20" height="20" fill="white"/>
</clipPath>
</defs>
</svg>
